# xmcd CD database file
#
# Track frame offsets:
#	150
#	21328
#	38020
#	51943
#	67492
#	82096
#	105904
#	121340
#	138275
#	154475
#
# Disc length: 2309 seconds
#
# Revision: 0
# Processed by: cddbd v1.5.2PL0 Copyright (c) Steve Scherf et al.
# Submitted via: CDex 1.51
#
DISCID=8b09030a
DTITLE=Adam Hood - Different Groove
DYEAR=2007
DGENRE=Country
TTITLE0=22 Days Too Long
TTITLE1=Shelly
TTITLE2=Never Comes Easy
TTITLE3=Cars, Trucks And Me
TTITLE4=Buzzes Like Neon
TTITLE5=Fool Of An Honest Man
TTITLE6=Different Groove
TTITLE7=Late Night Diner
TTITLE8=Varnado
TTITLE9=Whole Town Talking
EXTD=YEAR: 2007
EXTT0=
EXTT1=
EXTT2=
EXTT3=
EXTT4=
EXTT5=
EXTT6=
EXTT7=
EXTT8=
EXTT9=
PLAYORDER=
